<?xml version="1.0" standalone="no"?>
<!DOCTYPE svg PUBLIC "-//W3C//DTD SVG 20010904//EN"
 "http://www.w3.org/TR/2001/REC-SVG-20010904/DTD/svg10.dtd">
<svg version="1.0" xmlns="http://www.w3.org/2000/svg"
 width="400.000000pt" height="300.000000pt" viewBox="0 0 400.000000 300.000000"
 preserveAspectRatio="xMidYMid meet">

<g transform="translate(0.000000,300.000000) scale(0.100000,-0.100000)"
fill="#000000" stroke="none">
<path d="M2642 2194 c-75 -52 -159 -401 -163 -676 -2 -81 -4 -96 -15 -87 -9 7
-14 32 -14 64 0 70 -16 113 -51 130 -54 29 -56 26 -62 -107 -9 -185 -41 -311
-85 -326 -6 -2 -16 15 -23 37 -23 77 20 250 81 328 25 32 25 38 0 63 -17 17
-33 20 -100 20 l-80 0 1 28 c0 15 6 56 12 91 l13 64 68 28 c113 46 166 113
166 212 0 64 -26 95 -90 107 -51 9 -107 -16 -145 -66 -30 -39 -69 -124 -79
-171 -9 -39 -21 -49 -68 -56 l-38 -6 0 50 c0 42 -5 55 -28 79 -17 16 -38 27
-52 26 -24 -1 -25 -4 -30 -90 l-5 -88 -63 -20 c-49 -15 -62 -23 -60 -36 3 -14
14 -17 62 -14 l57 2 -6 -57 c-24 -209 -37 -279 -65 -363 -39 -114 -58 -153
-70 -145 -16 10 -12 57 21 212 17 81 33 171 36 200 5 52 5 52 -32 70 l-37 17
-48 -52 c-69 -74 -98 -69 -114 21 -6 31 -14 41 -49 58 -23 12 -43 22 -44 24
-2 1 17 22 41 47 84 88 97 186 35 261 -84 101 -267 128 -494 72 -135 -34 -315
-149 -315 -202 0 -21 52 -73 72 -73 5 0 44 31 85 70 116 109 262 170 423 177
83 4 99 2 128 -16 17 -11 32 -29 33 -38 5 -82 -31 -157 -104 -214 -63 -50
-115 -84 -143 -93 -19 -6 -22 -2 -28 35 -4 22 -18 73 -31 112 -14 39 -25 83
-25 99 0 26 -3 28 -39 28 -28 0 -45 -7 -64 -25 -24 -25 -25 -26 -10 -73 43
-132 65 -221 60 -235 -11 -30 -105 -52 -222 -52 -60 0 -127 4 -147 8 -53 11
-47 -5 15 -39 49 -27 59 -29 167 -29 63 0 139 4 168 8 49 8 52 8 52 -13 0 -12
-13 -40 -29 -63 -70 -103 -97 -193 -88 -294 10 -108 59 -162 132 -149 73 14
94 82 104 321 l6 161 43 -9 c39 -8 43 -11 38 -30 -30 -105 -37 -142 -37 -207
1 -92 12 -135 48 -172 23 -24 35 -28 77 -28 28 0 58 6 66 13 63 50 92 159 88
327 l-3 118 45 -2 c52 -2 51 8 26 -155 -33 -215 -17 -280 62 -266 51 8 84 51
117 150 5 15 12 0 26 -55 21 -80 57 -130 94 -130 20 0 21 3 14 53 -13 88 -9
274 10 454 9 95 19 174 22 176 2 3 22 8 43 11 l39 7 -7 -33 c-4 -18 -10 -57
-13 -85 -5 -50 -7 -53 -34 -53 -35 0 -39 -23 -7 -37 21 -9 22 -13 22 -224 1
-192 3 -217 20 -242 10 -15 16 -30 13 -33 -6 -7 -265 -37 -507 -59 -199 -18
-489 -21 -567 -6 -115 23 -173 73 -173 150 0 61 28 106 85 133 51 25 56 44 22
76 -66 62 -164 -6 -187 -128 -27 -144 78 -263 280 -315 106 -28 276 -37 449
-25 150 10 416 40 550 61 36 5 112 16 170 24 58 8 151 21 206 30 55 8 123 15
151 15 51 0 52 -1 82 -48 64 -98 159 -172 222 -172 90 0 97 103 13 182 -33 31
-118 75 -161 84 -38 8 -58 54 -78 187 l-15 98 32 39 c24 30 40 40 61 40 26 0
28 -2 22 -26 -12 -46 -9 -217 3 -259 16 -50 57 -95 87 -95 28 0 60 33 82 85
16 40 17 40 26 15 24 -66 84 -88 148 -55 73 38 130 176 130 316 0 33 3 37 38
47 85 26 209 156 233 245 24 90 -20 177 -90 177 l-28 0 -5 -82 c-4 -67 -11
-95 -35 -143 -28 -56 -110 -145 -132 -145 -5 0 -12 11 -15 25 -10 38 -72 102
-112 115 -90 30 -162 -47 -124 -132 14 -30 73 -68 116 -75 34 -6 34 -6 34 -57
0 -76 -45 -236 -71 -251 -24 -16 -30 23 -25 163 l5 143 -32 19 c-18 11 -35 20
-38 20 -3 0 -9 -33 -12 -72 -7 -99 -53 -268 -75 -282 -14 -8 -22 30 -22 104 1
83 13 138 53 224 l31 69 -29 23 c-42 34 -73 28 -99 -21 -11 -22 -28 -45 -36
-52 -24 -19 -33 2 -16 35 29 57 84 238 101 335 19 106 17 237 -5 277 -12 22
-66 50 -97 50 -10 0 -29 -7 -41 -16z m-322 -79 c21 -26 -4 -87 -54 -133 -48
-45 -83 -66 -89 -55 -9 17 48 137 80 169 38 38 45 40 63 19z m420 -85 c0 -109
-78 -408 -129 -490 l-21 -35 0 36 c0 127 112 561 141 543 5 -3 9 -27 9 -54z
m-1317 -385 c8 -44 13 -81 12 -83 -1 -2 -20 7 -41 20 -26 15 -61 24 -111 28
-40 3 -74 10 -76 15 -1 6 37 30 85 55 48 25 90 48 94 53 14 14 23 -8 37 -88z
m1601 -41 c9 -19 16 -46 16 -59 0 -23 -2 -24 -27 -14 -35 13 -73 48 -73 66 0
58 57 62 84 7z m-834 -38 c0 -2 -9 -24 -20 -49 -27 -61 -36 -180 -20 -257 14
-64 46 -104 94 -116 63 -15 143 62 174 168 14 47 21 58 38 58 18 0 23 -10 34
-72 7 -40 20 -94 30 -119 l17 -46 -176 -7 c-97 -3 -196 -9 -220 -13 l-44 -6 6
204 c7 234 12 259 57 259 16 0 30 -2 30 -4z m-743 -196 c-6 -115 -33 -204 -64
-208 -55 -8 -42 172 22 298 27 53 28 54 37 30 6 -14 8 -68 5 -120z m-352 -145
c-19 -92 -28 -107 -46 -74 -30 56 -8 218 40 302 16 28 16 27 19 -60 2 -53 -4
-120 -13 -168z m1628 -201 c77 -40 129 -97 112 -124 -11 -17 -85 31 -121 79
-48 63 -46 73 9 45z"/>
<path d="M2823 1825 c-7 -53 -19 -107 -29 -124 -22 -38 -7 -61 42 -61 42 0 68
37 78 111 9 66 0 110 -30 142 -41 45 -49 36 -61 -68z"/>
</g>
</svg>
